<svg xmlns="http://www.w3.org/2000/svg" width="48.117" height="44.996" viewBox="0 0 48.117 44.996">
  <g id="chocolates" transform="translate(-261 -368.262)">
    <g id="cookies" transform="translate(261 368.262)">
      <path id="Path_11083" data-name="Path 11083" d="M227.431,149.8l4.39-4.74a1.082,1.082,0,0,0,.418-.1l5.4-2.5,0,.145a1.024,1.024,0,0,0,1.024.994h1.812a1.022,1.022,0,0,0,1.024-.984l.007-.138,5.373,2.483a1.036,1.036,0,0,0,.411.1l4.379,4.726v1.684a1.026,1.026,0,0,0,.957,1.021l.2.017-4.44,4.794a5.612,5.612,0,0,0-1.193,2.035H226.265l-.32-.094V153.6A5.6,5.6,0,0,1,227.431,149.8Z" transform="translate(-225.945 -130.632)" fill="#cbe5e8"/>
      <g id="Group_6525" data-name="Group 6525" transform="translate(0.002 0)">
        <g id="Group_6524" data-name="Group 6524" transform="translate(0 0)">
          <path id="Path_11084" data-name="Path 11084" d="M291.726,16.6h13.091a.594.594,0,0,1,.519.895l-5.121,8.863v-.288a1.019,1.019,0,0,0-1.017-1.025h-1.812a1.025,1.025,0,0,0-1.024,1.025V26.4l-5.148-8.909A.6.6,0,0,1,291.726,16.6Z" transform="translate(-284.661 -16.597)" fill="#deecf1"/>
          <g id="Group_6509" data-name="Group 6509" transform="translate(11.283 0)">
            <path id="Path_11085" data-name="Path 11085" d="M343.847,25.042l-1.5-8.444h4.663l-1.5,8.444Z" transform="translate(-342.352 -16.598)" fill="#eef5f6"/>
          </g>
          <g id="Group_6512" data-name="Group 6512" transform="translate(6.115 19.204)">
            <path id="Path_11086" data-name="Path 11086" d="M294.629,225.318a4.138,4.138,0,0,0-3.133,1.432,4.136,4.136,0,0,0-4.137-1.307v-.219a4.251,4.251,0,0,1,8.5,0c0,.094-.007.189-.013.276A4.225,4.225,0,0,0,294.629,225.318Z" transform="translate(-280.867 -220.972)" fill="#fe7701"/>
            <g id="Group_6510" data-name="Group 6510" transform="translate(9.359 0)">
              <path id="Path_11087" data-name="Path 11087" d="M291.759,225.224a4.191,4.191,0,0,0-1.543.293c.007-.1.007-.2.007-.293a4.243,4.243,0,0,0-2.863-4.019,4.156,4.156,0,0,1,1.381-.232,4.249,4.249,0,0,1,4.251,4.251c0,.061-.007.118-.007.179A4.234,4.234,0,0,0,291.759,225.224Z" transform="translate(-287.359 -220.973)" fill="#f46700"/>
            </g>
            <path id="Path_11088" data-name="Path 11088" d="M363.913,225.322a4.146,4.146,0,0,0-3.133,1.428,4.168,4.168,0,0,0-3.133-1.428,4.051,4.051,0,0,0-1.22.185,1.941,1.941,0,0,1-.013-.28,4.252,4.252,0,0,1,8.5,0c0,.074,0,.145-.007.219A4,4,0,0,0,363.913,225.322Z" transform="translate(-356.414 -220.976)" fill="#fe7701"/>
            <g id="Group_6511" data-name="Group 6511" transform="translate(2.99 0.003)">
              <path id="Path_11089" data-name="Path 11089" d="M360.929,225.224a4.255,4.255,0,0,0-1.529.283c.007-.094.014-.189.014-.283a4.258,4.258,0,0,0-2.992-4.063,4.258,4.258,0,0,1,5.511,4.063v.118A4.312,4.312,0,0,0,360.929,225.224Z" transform="translate(-356.422 -220.973)" fill="#f46700"/>
            </g>
          </g>
          <g id="Group_6517" data-name="Group 6517" transform="translate(3.098 23.459)">
            <path id="Path_11090" data-name="Path 11090" d="M261.863,271.461a4.379,4.379,0,0,1-.121-.99,4.257,4.257,0,0,1,7.9-2.2l-1.078,1.159a5.518,5.518,0,0,0-1.193,2.035Z" transform="translate(-249.218 -266.217)" fill="#a44f3e"/>
            <g id="Group_6514" data-name="Group 6514" transform="translate(15.523 0.003)">
              <g id="Group_6513" data-name="Group 6513" transform="translate(0)">
                <path id="Path_11091" data-name="Path 11091" d="M266.065,269.358a5.526,5.526,0,0,0-.768,1.051,4.243,4.243,0,0,0-2.985-4,4.1,4.1,0,0,1,1.26-.189,4.24,4.24,0,0,1,3.578,1.961Z" transform="translate(-262.313 -266.219)" fill="#883f2e"/>
              </g>
            </g>
            <path id="Path_11092" data-name="Path 11092" d="M322,271.461a4.377,4.377,0,0,1-.121-.99,4.251,4.251,0,1,1,8.5,0,4.376,4.376,0,0,1-.108.99Z" transform="translate(-315.617 -266.217)" fill="#a44f3e"/>
            <g id="Group_6515" data-name="Group 6515" transform="translate(9.259 0)">
              <path id="Path_11093" data-name="Path 11093" d="M324.788,271.366a4.369,4.369,0,0,0,.088-.9,4.255,4.255,0,0,0-2.985-4.056,4.1,4.1,0,0,1,1.26-.189,4.249,4.249,0,0,1,4.245,4.245,4.367,4.367,0,0,1-.088.9Z" transform="translate(-321.891 -266.219)" fill="#883f2e"/>
            </g>
            <path id="Path_11094" data-name="Path 11094" d="M388.684,271.461a4.38,4.38,0,0,1-.121-.99,4.251,4.251,0,0,1,8.5,0,4.8,4.8,0,0,1-.108.99Z" transform="translate(-388.562 -266.217)" fill="#a44f3e"/>
            <g id="Group_6516" data-name="Group 6516" transform="translate(2.992 0)">
              <path id="Path_11095" data-name="Path 11095" d="M391.461,271.366a4.365,4.365,0,0,0,.094-.9,4.255,4.255,0,0,0-2.985-4.056,4.043,4.043,0,0,1,1.26-.189,4.253,4.253,0,0,1,4.245,4.245,3.941,3.941,0,0,1-.094.9Z" transform="translate(-388.57 -266.219)" fill="#883f2e"/>
            </g>
          </g>
          <path id="Path_11096" data-name="Path 11096" d="M306.817,320.992a5.6,5.6,0,0,0-.3,1.8v7.155H286.988a1.452,1.452,0,0,1-1.449-1.455v-7.5Z" transform="translate(-285.539 -292.383)" fill="#00c27a"/>
          <path id="Path_11097" data-name="Path 11097" d="M1.488,228.958l4.389-4.743a.961.961,0,0,0,.417-.1l5.4-2.5,0,.148a1.018,1.018,0,0,0,1.023.99h1.813a1.021,1.021,0,0,0,1.023-.98l.006-.141,5.372,2.483a1.047,1.047,0,0,0,.413.1l4.392,4.743a5.588,5.588,0,0,1,1.49,3.8V238.4l-.272.1h-7.9v-5.077a.391.391,0,0,0-.39-.391H8.593a.391.391,0,0,0-.39.391V238.5H.264L0,238.4v-5.643A5.589,5.589,0,0,1,1.488,228.958Z" transform="translate(20.886 -202.353)" fill="#deecf1"/>
          <g id="Group_6523" data-name="Group 6523" transform="translate(4.741 6.892)">
            <g id="Group_6518" data-name="Group 6518" transform="translate(1.376 4.938)">
              <path id="Path_11098" data-name="Path 11098" d="M288.192,143.707a1.027,1.027,0,0,0,1.024-1.027v-.1l1.913.886,3.611,6.253a.225.225,0,0,1-.216.337l-1.489-.145a.224.224,0,0,0-.229.125l-.613,1.364a.23.23,0,0,1-.4.02l-4.454-7.711Z" transform="translate(-279.775 -142.568)" fill="#09a755"/>
              <path id="Path_11099" data-name="Path 11099" d="M371.505,143.345l1.94-.9v.108a1.024,1.024,0,0,0,1.024,1.027h.822l-4.454,7.715a.225.225,0,0,1-.4-.02l-.62-1.364a.217.217,0,0,0-.222-.128l-1.489.145a.226.226,0,0,1-.216-.337Z" transform="translate(-367.865 -142.449)" fill="#09a755"/>
            </g>
            <g id="Group_6522" data-name="Group 6522" transform="translate(0 0)">
              <path id="Path_11100" data-name="Path 11100" d="M272.75,94.974V92.5l5.336-2.469a1.124,1.124,0,0,1,1.6,1.016v5.385a1.125,1.125,0,0,1-1.6,1.016l-5.336-2.469Z" transform="translate(-261.939 -89.927)" fill="#00c27a"/>
              <g id="Group_6519" data-name="Group 6519" transform="translate(15.477 0)">
                <path id="Path_11101" data-name="Path 11101" d="M273.007,96.433V91.048a1.1,1.1,0,0,0-.249-.706l.667-.31a1.124,1.124,0,0,1,1.6,1.016v5.385a1.125,1.125,0,0,1-1.6,1.016l-.667-.312A1.1,1.1,0,0,0,273.007,96.433Z" transform="translate(-272.758 -89.927)" fill="#08b865"/>
              </g>
              <path id="Path_11102" data-name="Path 11102" d="M389.13,90.032l5.37,2.481v2.454l-5.37,2.481a1.118,1.118,0,0,1-1.583-1.016V91.048A1.116,1.116,0,0,1,389.13,90.032Z" transform="translate(-387.547 -89.927)" fill="#00c27a"/>
              <g id="Group_6520" data-name="Group 6520" transform="translate(2.694 3.107)">
                <path id="Path_11103" data-name="Path 11103" d="M301.039,123H304.6a.706.706,0,1,1,0,1.412h-3.564Z" transform="translate(-292.918 -122.996)" fill="#09a755"/>
                <path id="Path_11104" data-name="Path 11104" d="M388.254,123h3.557v1.408h-3.557a.7.7,0,1,1,0-1.408Z" transform="translate(-387.547 -123)" fill="#09a755"/>
              </g>
              <g id="Group_6521" data-name="Group 6521" transform="translate(6.861 1.458)">
                <path id="Path_11105" data-name="Path 11105" d="M346.564,110.157h1.812a1.121,1.121,0,0,0,1.118-1.12v-2.469a1.121,1.121,0,0,0-1.118-1.118h-1.812a1.113,1.113,0,0,0-1.118,1.118v2.469A1.113,1.113,0,0,0,346.564,110.157Z" transform="translate(-345.445 -105.449)" fill="#46cc8d"/>
              </g>
            </g>
          </g>
        </g>
      </g>
      <g id="Group_6542" data-name="Group 6542" transform="translate(20.888 7.439)">
        <g id="Group_6541" data-name="Group 6541" transform="translate(0 0)">
          <path id="Path_11106" data-name="Path 11106" d="M69.467,95.754h13.09a.6.6,0,0,1,.517.9l-5.117,8.862v-.288a1.026,1.026,0,0,0-1.024-1.024H75.118a1.026,1.026,0,0,0-1.024,1.024v.335L68.95,96.65A.6.6,0,0,1,69.467,95.754Z" transform="translate(-62.397 -95.754)" fill="#deecf1"/>
          <g id="Group_6526" data-name="Group 6526" transform="translate(11.285 0)">
            <path id="Path_11107" data-name="Path 11107" d="M123.252,104.2h-1.661l-1.5-8.444h4.659Z" transform="translate(-120.092 -95.756)" fill="#eef5f6"/>
          </g>
          <g id="Group_6527" data-name="Group 6527" transform="translate(6.117 19.209)">
            <path id="Path_11108" data-name="Path 11108" d="M71.533,304.545a.4.4,0,0,0-.391-.391h-6.05a4.253,4.253,0,1,1,6.441,3.867Z" transform="translate(-58.596 -300.125)" fill="#fed2a4"/>
            <path id="Path_11109" data-name="Path 11109" d="M138.47,300.125a4.253,4.253,0,0,1,4.248,4.029h-6.023a.4.4,0,0,0-.391.391v3.49a4.252,4.252,0,0,1,2.166-7.91Z" transform="translate(-134.219 -300.125)" fill="#ffbd86"/>
          </g>
          <g id="Group_6529" data-name="Group 6529" transform="translate(3.099 23.454)">
            <path id="Path_11110" data-name="Path 11110" d="M32.953,345.55a.391.391,0,0,0-.01-.088,4.881,4.881,0,0,1,.837-.088,4.255,4.255,0,0,1,4.252,4.258,4.33,4.33,0,0,1-.116.99H32.953Z" transform="translate(-16.999 -345.375)" fill="#ffbd86"/>
            <g id="Group_6528" data-name="Group 6528" transform="translate(6.263 0.006)">
              <circle id="Ellipse_23" data-name="Ellipse 23" cx="4.252" cy="4.252" r="4.252" fill="#fff"/>
            </g>
            <path id="Path_11111" data-name="Path 11111" d="M206.63,345.375a4.5,4.5,0,0,1,.859.094.485.485,0,0,0-.007.081v5.073h-4.989a4.191,4.191,0,0,1-.115-.99A4.253,4.253,0,0,1,206.63,345.375Z" transform="translate(-202.379 -345.375)" fill="#fed2a4"/>
          </g>
          <path id="Path_11112" data-name="Path 11112" d="M8.2,400.148v3.6a.4.4,0,0,0,.39.391H18.663a.4.4,0,0,0,.39-.391v-3.6h8.176v7.506a1.454,1.454,0,0,1-1.452,1.449H1.452A1.454,1.454,0,0,1,0,407.654v-7.506Z" transform="translate(0 -371.546)" fill="#fd4755"/>
          <g id="Group_6530" data-name="Group 6530" transform="translate(21.759 28.603)">
            <path id="Path_11113" data-name="Path 11113" d="M1.452,407.654v-7.506H5.47v7.506A1.454,1.454,0,0,1,4.018,409.1H0A1.454,1.454,0,0,0,1.452,407.654Z" transform="translate(0 -400.148)" fill="#fb2b3a"/>
          </g>
          <g id="Group_6540" data-name="Group 6540" transform="translate(4.742 6.888)">
            <g id="Group_6531" data-name="Group 6531" transform="translate(1.369 4.938)">
              <path id="Path_11114" data-name="Path 11114" d="M65.927,222.86a1.027,1.027,0,0,0,1.024-1.024v-.1l1.915.883,3.61,6.249a.226.226,0,0,1-.216.337l-1.489-.145a.227.227,0,0,0-.227.131l-.618,1.361a.223.223,0,0,1-.4.017l-4.452-7.711Z" transform="translate(-57.504 -221.724)" fill="#e41f2d"/>
              <path id="Path_11115" data-name="Path 11115" d="M149.247,222.5l1.94-.9v.115a1.029,1.029,0,0,0,1.028,1.024h.825l-4.454,7.711a.228.228,0,0,1-.4-.017l-.62-1.364a.225.225,0,0,0-.222-.131l-1.492.148a.226.226,0,0,1-.216-.337Z" transform="translate(-145.606 -221.605)" fill="#e41f2d"/>
            </g>
            <g id="Group_6539" data-name="Group 6539" transform="translate(0 0)">
              <path id="Path_11116" data-name="Path 11116" d="M50.488,174.136V171.66l5.337-2.469a1.119,1.119,0,0,1,1.589,1.014v5.387a1.119,1.119,0,0,1-1.589,1.014l-5.337-2.466Z" transform="translate(-39.672 -169.085)" fill="#fb2b3a"/>
              <g id="Group_6532" data-name="Group 6532" transform="translate(15.5 0.001)">
                <path id="Path_11117" data-name="Path 11117" d="M50.749,175.591V170.2a1.107,1.107,0,0,0-.259-.711l.653-.3a1.12,1.12,0,0,1,1.59,1.014v5.387a1.12,1.12,0,0,1-1.59,1.014l-.653-.3A1.109,1.109,0,0,0,50.749,175.591Z" transform="translate(-50.49 -169.085)" fill="#e41f2d"/>
              </g>
              <path id="Path_11118" data-name="Path 11118" d="M166.875,169.19l5.363,2.479v2.456l-5.363,2.479a1.12,1.12,0,0,1-1.59-1.014V170.2A1.12,1.12,0,0,1,166.875,169.19Z" transform="translate(-165.285 -169.085)" fill="#fb2b3a"/>
              <g id="Group_6533" data-name="Group 6533" transform="translate(2.697 3.113)">
                <path id="Path_11119" data-name="Path 11119" d="M78.779,202.152H82.34a.706.706,0,1,1,0,1.412H78.779Z" transform="translate(-70.659 -202.152)" fill="#c41926"/>
                <path id="Path_11120" data-name="Path 11120" d="M165.989,202.152h3.554v1.412h-3.554a.706.706,0,1,1,0-1.412Z" transform="translate(-165.281 -202.152)" fill="#c41926"/>
              </g>
              <g id="Group_6534" data-name="Group 6534" transform="translate(6.859 1.463)">
                <path id="Path_11121" data-name="Path 11121" d="M124.3,189.312h1.812a1.118,1.118,0,0,0,1.118-1.118v-2.469a1.116,1.116,0,0,0-1.118-1.118H124.3a1.116,1.116,0,0,0-1.118,1.118v2.469A1.118,1.118,0,0,0,124.3,189.312Z" transform="translate(-123.18 -184.605)" fill="#fd4755"/>
              </g>
              <g id="Group_6535" data-name="Group 6535" transform="translate(3.366 16.259)">
                <path id="Path_11122" data-name="Path 11122" d="M86.485,351.541H96.555a.48.48,0,0,0,.485-.478v-8.584a.48.48,0,0,0-.485-.478H86.485a.478.478,0,0,0-.485.478v8.584A.478.478,0,0,0,86.485,351.541Z" transform="translate(-86 -342)" fill="#fff"/>
              </g>
              <g id="Group_6536" data-name="Group 6536" transform="translate(10.918 16.259)">
                <path id="Path_11123" data-name="Path 11123" d="M86.481,351.062v-8.584A.477.477,0,0,0,86,342h3a.478.478,0,0,1,.483.478v8.584a.478.478,0,0,1-.483.478H86A.477.477,0,0,0,86.481,351.062Z" transform="translate(-85.998 -342)" fill="#eef5f6"/>
              </g>
              <g id="Group_6537" data-name="Group 6537" transform="translate(6.244 21.42)">
                <path id="Path_11124" data-name="Path 11124" d="M117.321,398.361H121.2a.7.7,0,1,0,0-1.408h-3.874a.7.7,0,0,0,0,1.408Z" transform="translate(-116.617 -396.953)" fill="#fd4755"/>
              </g>
              <g id="Group_6538" data-name="Group 6538" transform="translate(5.468 19.229)">
                <path id="Path_11125" data-name="Path 11125" d="M109.079,375.056H114.5a.707.707,0,0,0,0-1.415h-5.426a.707.707,0,0,0,0,1.415Z" transform="translate(-108.375 -373.641)" fill="#fd4755"/>
              </g>
            </g>
          </g>
        </g>
      </g>
    </g>
  </g>
</svg>
