<svg xmlns="http://www.w3.org/2000/svg" width="42.064" height="42.064" viewBox="0 0 42.064 42.064">
  <g id="Dairy_Product" data-name="Dairy Product" transform="translate(0 0)" style="mix-blend-mode: darken;isolation: isolate">
    <g id="Flat" transform="translate(0 0)">
      <path id="Path_11002" data-name="Path 11002" d="M61.145,5.915H48v-4.6A1.315,1.315,0,0,1,49.315,0H59.831a1.315,1.315,0,0,1,1.315,1.315Z" transform="translate(-44.056 0)" fill="#e2dbd5"/>
      <path id="Path_11003" data-name="Path 11003" d="M149.272,56H144V93.464h9.229V63.23Z" transform="translate(-132.169 -51.399)" fill="#d4ccc7"/>
      <path id="Path_11004" data-name="Path 11004" d="M144,56h5.272V93.464H144Z" transform="translate(-132.169 -51.399)" fill="#c6bab3"/>
      <path id="Path_11005" data-name="Path 11005" d="M13.934,128l-.789,1.315v30.234H1.315A1.315,1.315,0,0,1,0,158.234V129.315A2.708,2.708,0,0,1,2.322,128Z" transform="translate(0 -117.484)" fill="#e2dbd5"/>
      <rect id="Rectangle_4196" data-name="Rectangle 4196" width="9" height="6" rx="3" transform="translate(25.777 1.061)" fill="#ffead2"/>
      <path id="Path_11006" data-name="Path 11006" d="M338.877,0h-1.972a7.231,7.231,0,0,1-4.215,6.573h6.187a.657.657,0,0,0,.657-.657V.657A.657.657,0,0,0,338.877,0Z" transform="translate(-305.357)" fill="#faddc3"/>
      <path id="Path_11007" data-name="Path 11007" d="M304,24h9.2v1.315H304Z" transform="translate(-279.024 -22.028)" fill="#f5d3b8"/>
      <path id="Path_11008" data-name="Path 11008" d="M285.8,100.806H272.657a.657.657,0,0,1-.657-.657V75.173a7.265,7.265,0,0,1,2.838-5.743c1.343-1.027-1.523-2.039-1.523-3.555A1.878,1.878,0,0,1,275.19,64h8.079a1.878,1.878,0,0,1,1.876,1.876,2.57,2.57,0,0,1-.909,1.594c-.728.609-1.265,1.463-.614,1.961a7.265,7.265,0,0,1,2.838,5.743v24.976A.657.657,0,0,1,285.8,100.806Z" transform="translate(-249.653 -58.742)" fill="#f09b73"/>
      <path id="Path_11009" data-name="Path 11009" d="M272,196.831v15.824a.657.657,0,0,0,.657.657H285.8a.657.657,0,0,0,.657-.657V187.679a7.152,7.152,0,0,0-.086-1.1A17.1,17.1,0,0,1,272,196.831Z" transform="translate(-249.653 -171.247)" fill="#e58b6c"/>
      <path id="Path_11010" data-name="Path 11010" d="M13.145,63.23H0L3.944,56H17.089Z" transform="translate(0 -51.399)" fill="#efebe8"/>
      <path id="Path_11011" data-name="Path 11011" d="M280,232.976c4.478,0,10.226-.928,12.946-3.551a.648.648,0,0,0,.155-.7l-5.385-13.863a.659.659,0,0,0-.785-.395c-1.814.486-2.12-1.834-.944-2.421a.649.649,0,0,0,.318-.816l-1.092-2.811A.657.657,0,0,0,284.6,208H280Z" transform="translate(-256.996 -190.911)" fill="#eed60f"/>
      <path id="Path_11012" data-name="Path 11012" d="M184.544,232.976a11.947,11.947,0,0,1-8.345-3.362.657.657,0,0,1-.155-.707l.8-2.088a.657.657,0,0,1,.574-.42,1.335,1.335,0,0,0,.848-2.212.657.657,0,0,1-.142-.694l2.124-5.516a.663.663,0,0,1,.967-.318c1.642,1.048,2.791-2.1.93-2.408a.664.664,0,0,1-.507-.885l2.289-5.945a.657.657,0,0,1,1.227,0l7.887,20.485a.657.657,0,0,1-.155.707A11.947,11.947,0,0,1,184.544,232.976Z" transform="translate(-161.54 -190.911)" fill="#f8e868"/>
      <path id="Path_11013" data-name="Path 11013" d="M195.334,363.742l-3.4-8.837a16.441,16.441,0,0,1-13.438,9.55,12.037,12.037,0,0,0,16.685-.005A.657.657,0,0,0,195.334,363.742Z" transform="translate(-163.829 -325.747)" fill="#f6e23d"/>
      <ellipse id="Ellipse_2" data-name="Ellipse 2" cx="1.5" cy="2" rx="1.5" ry="2" transform="translate(24.777 34.061)" fill="#f8e868"/>
      <ellipse id="Ellipse_3" data-name="Ellipse 3" cx="2.5" cy="1.5" rx="2.5" ry="1.5" transform="translate(21.777 29.061)" fill="#f6e23d"/>
      <circle id="Ellipse_4" data-name="Ellipse 4" cx="1.5" cy="1.5" r="1.5" transform="translate(18.777 36.061)" fill="#f8e868"/>
      <g id="Group_6500" data-name="Group 6500" transform="translate(18.403 28.919)">
        <path id="Path_11014" data-name="Path 11014" d="M289.313,411.284a1.972,1.972,0,0,1,2.544-1.887,1.972,1.972,0,1,0-2.459,2.459A1.966,1.966,0,0,1,289.313,411.284Z" transform="translate(-282.74 -403.397)" fill="#eed60f"/>
        <path id="Path_11015" data-name="Path 11015" d="M265.313,355.284a1.972,1.972,0,0,1,2.544-1.887,1.972,1.972,0,1,0-2.459,2.459A1.965,1.965,0,0,1,265.313,355.284Z" transform="translate(-260.712 -351.998)" fill="#eed60f"/>
        <path id="Path_11016" data-name="Path 11016" d="M225.313,427.284a1.972,1.972,0,0,1,2.544-1.887,1.972,1.972,0,1,0-2.459,2.459A1.965,1.965,0,0,1,225.313,427.284Z" transform="translate(-223.998 -418.083)" fill="#eed60f"/>
      </g>
      <circle id="Ellipse_5" data-name="Ellipse 5" cx="1.5" cy="1.5" r="1.5" transform="translate(21.777 21.061)" fill="#fcf5be"/>
      <circle id="Ellipse_6" data-name="Ellipse 6" cx="0.5" cy="0.5" r="0.5" transform="translate(24.777 25.061)" fill="#fcf5be"/>
      <path id="Path_11017" data-name="Path 11017" d="M336.033,328l1.315,14.519a.657.657,0,0,0,.655.6h9.2a.657.657,0,0,0,.655-.6L349.173,328Z" transform="translate(-308.425 -301.052)" fill="#81c784"/>
      <circle id="Ellipse_7" data-name="Ellipse 7" cx="1.5" cy="1.5" r="1.5" transform="translate(27.777 11.061)" fill="#f2bba5"/>
      <ellipse id="Ellipse_8" data-name="Ellipse 8" cx="1" cy="0.5" rx="1" ry="0.5" transform="translate(30.777 14.061)" fill="#f2bba5"/>
      <ellipse id="Ellipse_9" data-name="Ellipse 9" cx="1.5" cy="1" rx="1.5" ry="1" transform="translate(3.777 7.061)" fill="#fff"/>
      <ellipse id="Ellipse_10" data-name="Ellipse 10" cx="0.5" cy="1" rx="0.5" ry="1" transform="translate(6.777 9.061)" fill="#fff"/>
      <circle id="Ellipse_11" data-name="Ellipse 11" cx="1" cy="1" r="1" transform="translate(30.777 29.061)" fill="#c8e6c9"/>
      <circle id="Ellipse_12" data-name="Ellipse 12" cx="0.5" cy="0.5" r="0.5" transform="translate(32.777 31.061)" fill="#c8e6c9"/>
      <path id="Path_11018" data-name="Path 11018" d="M0,437.258a1.315,1.315,0,0,0,1.315,1.314H13.145V432C10.878,437.189,0,437.258,0,437.258Z" transform="translate(0 -396.508)" fill="#d4ccc7"/>
      <path id="Path_11019" data-name="Path 11019" d="M0,208H13.145v18.4H0Z" transform="translate(0 -190.911)" fill="#7a83ff"/>
      <path id="Path_11020" data-name="Path 11020" d="M0,252.421v4.906H13.145V241.692A17.773,17.773,0,0,1,0,252.421Z" transform="translate(0 -221.835)" fill="#6872ff"/>
      <path id="Path_11021" data-name="Path 11021" d="M32,262.573c0-1.93,3.286-6.573,3.944-6.573s3.944,4.55,3.944,6.573C39.887,267.29,32,267.987,32,262.573Z" transform="translate(-29.371 -234.968)" fill="#fff"/>
      <path id="Path_11022" data-name="Path 11022" d="M36.09,318.8c1.5,3.437,7.551,2.39,7.551-1.741a4.688,4.688,0,0,0-.444-1.7A5.991,5.991,0,0,1,36.09,318.8Z" transform="translate(-33.125 -289.455)" fill="#efebe8"/>
      <path id="Path_11023" data-name="Path 11023" d="M335.117,321.315h-14.46a.657.657,0,0,1,0-1.315h14.46a.657.657,0,1,1,0,1.315Z" transform="translate(-293.71 -293.71)" fill="#49ad4d"/>
      <path id="Path_11024" data-name="Path 11024" d="M348,375.819l.332,3.663a.657.657,0,0,0,.654.6h9.2a.657.657,0,0,0,.655-.6l1.015-11.211A14.131,14.131,0,0,1,348,375.819Z" transform="translate(-319.409 -338.015)" fill="#66bb6a"/>
    </g>
  </g>
</svg>
