<svg xmlns="http://www.w3.org/2000/svg" width="37.893" height="41.652" viewBox="0 0 37.893 41.652">
  <g id="flat" transform="translate(0 0)" style="mix-blend-mode: darken;isolation: isolate">
    <path id="Path_10981" data-name="Path 10981" d="M224,341.031a14.007,14.007,0,0,1,2.083-3.975l.793-1.057.793,1.057a14.007,14.007,0,0,1,2.083,3.975l-2.875,5.211Z" transform="translate(-208.099 -308.005)" fill="#02a437"/>
    <path id="Path_10982" data-name="Path 10982" d="M201.343,374.037a5.75,5.75,0,1,1-7.4.176l.048.044a17.456,17.456,0,0,1,3.755,4.9l.351-.681a17.462,17.462,0,0,1,2.7-3.847Z" transform="translate(-178.972 -342.624)" fill="#f7ba61"/>
    <path id="Path_10983" data-name="Path 10983" d="M366.7,57.924,364.682,62.2a8.188,8.188,0,0,0,.387,7.717,4.432,4.432,0,0,0,8.207-1.833,8.188,8.188,0,0,0-2.934-7.149Z" transform="translate(-335.427 -54.913)" fill="#c38325"/>
    <g id="Group_6499" data-name="Group 6499" transform="translate(30.016 7.202)">
      <path id="Path_10984" data-name="Path 10984" d="M401.415,112.326a.719.719,0,0,1-.7-.562l-1.411-6.313a.719.719,0,0,1,1.4-.313l1.411,6.313a.719.719,0,0,1-.7.876Z" transform="translate(-397.652 -104.575)" fill="#97661d"/>
      <path id="Path_10985" data-name="Path 10985" d="M382.443,137.475a.719.719,0,0,1-.7-.562l-.627-2.806a.719.719,0,1,1,1.4-.313l.627,2.806a.719.719,0,0,1-.7.876Z" transform="translate(-381.098 -130.656)" fill="#97661d"/>
      <path id="Path_10986" data-name="Path 10986" d="M429.29,127.01a.719.719,0,0,1-.7-.562l-.627-2.806a.719.719,0,1,1,1.4-.313l.627,2.806a.719.719,0,0,1-.7.876Z" transform="translate(-423.736 -121.131)" fill="#97661d"/>
    </g>
    <path id="Path_10987" data-name="Path 10987" d="M197,192.416a5.637,5.637,0,0,0-3.986,1.651l-.492.492a1.779,1.779,0,0,0,2.516,2.516l.5-.5a1.923,1.923,0,0,1,2.514-.179l.939.7a1.779,1.779,0,0,0,2.491-.356,1.873,1.873,0,0,0-.328-2.586l-.632-.506A5.638,5.638,0,0,0,197,192.416Z" transform="translate(-178.974 -177.322)" fill="#ffc864"/>
    <path id="Path_10988" data-name="Path 10988" d="M201.855,195.624a1.859,1.859,0,0,1-.02.273,1.858,1.858,0,0,0-.683-1.2l-.633-.506a5.638,5.638,0,0,0-7.508.415l-.492.492a1.768,1.768,0,0,0-.5.987,1.771,1.771,0,0,1,.5-1.526l.492-.492a5.638,5.638,0,0,1,7.508-.415l.633.506A1.869,1.869,0,0,1,201.855,195.624Z" transform="translate(-178.972 -177.325)" fill="#fbb540"/>
    <path id="Path_10989" data-name="Path 10989" d="M358.176,254.428a5.637,5.637,0,0,0,2.225-3.7l.1-.689a1.779,1.779,0,0,0-3.519-.528l-.105.7a1.923,1.923,0,0,1-1.916,1.637l-1.174-.009A1.779,1.779,0,0,0,352,253.611a1.873,1.873,0,0,0,1.8,1.885l.809.031A5.636,5.636,0,0,0,358.176,254.428Z" transform="translate(-324.597 -227.911)" fill="#fbb540"/>
    <path id="Path_10990" data-name="Path 10990" d="M210.063,31.559v-.027a5.032,5.032,0,0,0-1.474-3.558l-3.558-3.557-3.558,3.558A5.032,5.032,0,0,0,200,31.532v.027a5.032,5.032,0,1,0,10.063,0Z" transform="translate(-186.255 -24.416)" fill="#683b0d"/>
    <path id="Path_10991" data-name="Path 10991" d="M229.055,27.681l-.811-1.892-1.368-1.368-1.368,1.368-.811,1.892a8.549,8.549,0,0,0-.7,3.388,8.645,8.645,0,0,0,1.8,5.266l.131.17a5,5,0,0,0,1.887,0l.132-.17a8.65,8.65,0,0,0,1.8-5.266A8.549,8.549,0,0,0,229.055,27.681Zm-2.18,7.691a7.2,7.2,0,0,1-1.438-4.3,7.116,7.116,0,0,1,.58-2.821l.858-2,.858,2a7.117,7.117,0,0,1,.58,2.821A7.2,7.2,0,0,1,226.875,35.372Z" transform="translate(-208.098 -24.42)" fill="#683b0d"/>
    <path id="Path_10992" data-name="Path 10992" d="M229.055,27.681l-.811-1.892-1.368-1.368-1.368,1.368-.811,1.892a8.549,8.549,0,0,0-.7,3.388,8.645,8.645,0,0,0,1.8,5.266l.131.17a5,5,0,0,0,1.887,0l.132-.17a8.65,8.65,0,0,0,1.8-5.266A8.549,8.549,0,0,0,229.055,27.681Zm-2.18,7.691a7.2,7.2,0,0,1-1.438-4.3,7.116,7.116,0,0,1,.58-2.821l.858-2,.858,2a7.117,7.117,0,0,1,.58,2.821A7.2,7.2,0,0,1,226.875,35.372Z" transform="translate(-208.098 -24.42)" fill="#533222"/>
    <path id="Path_10993" data-name="Path 10993" d="M122.156,244.844l-1.124,1.5a5.164,5.164,0,0,0-1.033,3.1,2.156,2.156,0,1,0,4.313,0,5.163,5.163,0,0,0-1.033-3.1Z" transform="translate(-113.443 -225.039)" fill="#89b140"/>
    <path id="Path_10994" data-name="Path 10994" d="M142.006,249.437a2.156,2.156,0,0,1-2.156,2.156,2.091,2.091,0,0,1-.409-.04,2.156,2.156,0,0,0,1.747-2.117,5.162,5.162,0,0,0-1.033-3.1l-.714-.953.41-.546,1.124,1.5A5.168,5.168,0,0,1,142.006,249.437Z" transform="translate(-131.136 -225.035)" fill="#aac16b"/>
    <path id="Path_10995" data-name="Path 10995" d="M51.42,209.482l-.775-.979a3.443,3.443,0,0,0-1.822-1.191,1.437,1.437,0,1,0-.732,2.78,3.442,3.442,0,0,0,2.173-.14Z" transform="translate(-47.019 -190.836)" fill="#02a437"/>
    <path id="Path_10996" data-name="Path 10996" d="M272,280.031l.374,1.191a3.442,3.442,0,0,0,1.276,1.764,1.438,1.438,0,1,0,1.677-2.335,3.442,3.442,0,0,0-2.079-.646Z" transform="translate(-251.786 -257.041)" fill="#683b0d"/>
    <path id="Path_10997" data-name="Path 10997" d="M89.235,113.234l-.265-1.854a5.163,5.163,0,0,0-1.46-2.921,2.156,2.156,0,0,0-3.05,3.05,5.163,5.163,0,0,0,2.921,1.46Z" transform="translate(-80.522 -100.333)" fill="#fbb540"/>
    <path id="Path_10998" data-name="Path 10998" d="M56.357,342.343a2.863,2.863,0,0,0-1.557-1.306l-.3-.536a1.8,1.8,0,0,0-3.134,1.758,1.8,1.8,0,0,0-3.134,1.758l.3.536a2.873,2.873,0,0,0,1.86,3.315l.3.536a1.8,1.8,0,1,0,3.134-1.758,1.8,1.8,0,0,0,3.134-1.758l-.3-.536A2.863,2.863,0,0,0,56.357,342.343Z" transform="translate(-47.912 -311.265)" fill="#ea9d2d"/>
    <path id="Path_10999" data-name="Path 10999" d="M106.973,415.746l.352.627" transform="translate(-101.586 -380.586)" fill="#fbb540"/>
    <path id="Path_11000" data-name="Path 11000" d="M377.5,361.631a4.7,4.7,0,0,1-.67-2.8q.014-.159.034-.317l.03-.238-.167.173q-.111.115-.226.225a4.627,4.627,0,0,1-2.581,1.227,3.594,3.594,0,1,0,3.581,1.729Z" transform="translate(-341.717 -328.28)" fill="#533222"/>
    <path id="Path_11001" data-name="Path 11001" d="M389.4,394.135a.719.719,0,0,1-.719-.707,3.952,3.952,0,0,1,1.52-3.172.719.719,0,1,1,.882,1.135,2.508,2.508,0,0,0-.965,2.013.719.719,0,0,1-.707.731Z" transform="translate(-357.98 -357.248)" fill="#683b0d"/>
  </g>
</svg>
