<svg xmlns="http://www.w3.org/2000/svg" width="42.725" height="43.799" viewBox="0 0 42.725 43.799">
  <g id="oil" transform="translate(0 0)" style="isolation: isolate">
    <g id="Group_6501" data-name="Group 6501" transform="translate(23.562 0)">
      <path id="Path_11025" data-name="Path 11025" d="M288.134,7.445H283a1.283,1.283,0,0,1-1.283-1.283V1.283A1.283,1.283,0,0,1,283,0h5.133a1.283,1.283,0,0,1,1.283,1.283V6.162A1.283,1.283,0,0,1,288.134,7.445Z" transform="translate(-281.718)" fill="#b34f03"/>
    </g>
    <path id="Path_11026" data-name="Path 11026" d="M329.284,0h-2.566V7.445h2.566a1.283,1.283,0,0,0,1.283-1.283V1.283A1.283,1.283,0,0,0,329.284,0Z" transform="translate(-299.306 0)" fill="#a24603"/>
    <g id="Group_6502" data-name="Group 6502" transform="translate(2.569 21.472)">
      <path id="Path_11027" data-name="Path 11027" d="M49.316,266.188a13.005,13.005,0,0,1-12.97-13.966,1.283,1.283,0,0,1,1.185-1.185,13.006,13.006,0,0,1,13.931,13.931,1.283,1.283,0,0,1-1.185,1.185C49.956,266.176,49.635,266.188,49.316,266.188Z" transform="translate(-36.31 -251.001)" fill="#00cb75"/>
    </g>
    <g id="Group_6503" data-name="Group 6503" transform="translate(0 33.095)">
      <path id="Path_11028" data-name="Path 11028" d="M16.445,397.572a13,13,0,0,1-9.851-4.514,1.283,1.283,0,0,1,0-1.676,13.005,13.005,0,0,1,19.7,0,1.283,1.283,0,0,1,0,1.676A13,13,0,0,1,16.445,397.572Z" transform="translate(-6.283 -386.867)" fill="#bee75e"/>
    </g>
    <g id="Group_6504" data-name="Group 6504" transform="translate(12.099 4.878)">
      <path id="Path_11029" data-name="Path 11029" d="M171.134,95.947H154.927a1.283,1.283,0,0,1-.742-.236,15.316,15.316,0,0,1,1.481-25.928,6.087,6.087,0,0,0,3.238-5.473v-6a1.283,1.283,0,0,1,1.283-1.283h5.688a1.283,1.283,0,0,1,1.283,1.283v6a6.086,6.086,0,0,0,3.238,5.473,15.316,15.316,0,0,1,1.481,25.928A1.284,1.284,0,0,1,171.134,95.947Z" transform="translate(-147.718 -57.026)" fill="#fff7cc"/>
    </g>
    <path id="Path_11030" data-name="Path 11030" d="M334.082,69.782a6.087,6.087,0,0,1-3.238-5.473v-6a1.283,1.283,0,0,0-1.283-1.283h-2.844V95.947h8.1a1.282,1.282,0,0,0,.742-.236,15.316,15.316,0,0,0-1.481-25.928Z" transform="translate(-299.305 -52.148)" fill="#ffe6b3"/>
    <path id="Path_11031" data-name="Path 11031" d="M177.718,309.058a12.778,12.778,0,0,0,5.062,10.17h15.368A12.743,12.743,0,0,0,202.163,304h-23.4A12.729,12.729,0,0,0,177.718,309.058Z" transform="translate(-163.052 -277.995)" fill="#ffde46"/>
    <g id="Group_6505" data-name="Group 6505" transform="translate(22.108 4.629)">
      <path id="Path_11032" data-name="Path 11032" d="M274.042,56.672H266a1.283,1.283,0,0,1,0-2.566h8.041a1.283,1.283,0,0,1,0,2.566Z" transform="translate(-264.718 -54.106)" fill="#ffe6b3"/>
    </g>
    <path id="Path_11033" data-name="Path 11033" d="M338.416,304h-11.7v15.227H334.4A12.744,12.744,0,0,0,338.416,304Z" transform="translate(-299.305 -277.994)" fill="#ffcd00"/>
    <path id="Path_11034" data-name="Path 11034" d="M330.738,54.106h-4.021v2.566h4.021a1.283,1.283,0,0,0,0-2.566Z" transform="translate(-299.305 -49.477)" fill="#ffca80"/>
  </g>
</svg>
