<svg xmlns="http://www.w3.org/2000/svg" width="40.246" height="40.827" viewBox="0 0 40.246 40.827">
  <g id="fruits" transform="translate(0 0)" style="isolation: isolate">
    <path id="Path_10911" data-name="Path 10911" d="M184.209,14.061a.736.736,0,0,1,.24.369,14.069,14.069,0,0,1,.616,4.53c-.082,4.556-2.667,9.812-6.914,14.059s-9.5,6.831-14.059,6.914a2.429,2.429,0,0,0-2.382,2.312,18.014,18.014,0,0,0,2.426.117c5.5-.1,11.294-3.187,15.733-7.625S187.394,24.508,187.494,19a16.562,16.562,0,0,0-.73-5.311,3.152,3.152,0,0,0-1.045-1.535,1.2,1.2,0,0,1-.449-.942V8.229a.607.607,0,0,0-.607-.607h-1.215a.607.607,0,0,0-.607.607v2.987a3.609,3.609,0,0,0,1.368,2.845Zm0,0" transform="translate(-148.815 -7.013)" fill="#ffb545"/>
    <path id="Path_10912" data-name="Path 10912" d="M54.22,214.663l-2.043-1.294a.655.655,0,0,0-.982.737l.6,1.947a6.8,6.8,0,0,0,2.627,3.584l2.007,1.321C56.429,218.592,56.337,216,54.22,214.663Zm0,0" transform="translate(-47.085 -196.259)" fill="#28d05b"/>
    <path id="Path_10913" data-name="Path 10913" d="M115.8,221.447l-.324-.324a.608.608,0,0,0-.621-.147,10.78,10.78,0,0,0-6.756,6.95l1.143.411a9.53,9.53,0,0,1,5.647-6.085l.053.053a.607.607,0,0,0,.859-.859Zm0,0" transform="translate(-99.475 -203.327)" fill="#b66652"/>
    <path id="Path_10914" data-name="Path 10914" d="M12.7,298.633a6.388,6.388,0,0,0-3.36.844,6.385,6.385,0,0,0-3.36-.844A6.057,6.057,0,0,0,.807,301.76a7.625,7.625,0,0,0-.313,6.162c1.156,3.547,4.224,6.725,7.139,6.892a4.84,4.84,0,0,0,.839-.015,8.384,8.384,0,0,1,1.746,0,4.84,4.84,0,0,0,.839.015c2.915-.167,5.983-3.344,7.14-6.892a7.626,7.626,0,0,0-.313-6.162,6.057,6.057,0,0,0-5.178-3.126Zm0,0" transform="translate(-0.001 -274.816)" fill="#ff5368"/>
    <path id="Path_10915" data-name="Path 10915" d="M62.934,313.356a6.038,6.038,0,0,0-1.965-2.125q.132.2.249.408a7.627,7.627,0,0,1,.313,6.163,11.547,11.547,0,0,1-4.29,5.846,6.312,6.312,0,0,1-3.5,1.046H48.957a6.472,6.472,0,0,0,3.728,1.717,4.81,4.81,0,0,0,.839-.015,8.307,8.307,0,0,1,1.746,0,4.867,4.867,0,0,0,.838.015c2.915-.166,5.983-3.344,7.139-6.891A7.627,7.627,0,0,0,62.934,313.356Zm0,0" transform="translate(-45.053 -286.413)" fill="#d9435b"/>
    <path id="Path_10916" data-name="Path 10916" d="M312.069,291.8a2.429,2.429,0,0,0-4.724,0,8.1,8.1,0,1,0,4.724,0Zm0,0" transform="translate(-277.559 -266.814)" fill="#ff983b"/>
    <path id="Path_10917" data-name="Path 10917" d="M332.721,328.684A8.1,8.1,0,0,1,321.4,340.007a8.1,8.1,0,1,0,11.323-11.323Zm0,0" transform="translate(-295.77 -302.474)" fill="#ff7e40"/>
    <path id="Path_10918" data-name="Path 10918" d="M395.543,240.208v5.647a.624.624,0,0,0,.589.632.607.607,0,0,0,.626-.607v-6.327a.784.784,0,0,0-1.215.655Zm0,0" transform="translate(-364.002 -220.331)" fill="#b66652"/>
    <path id="Path_10919" data-name="Path 10919" d="M400.777,245.606l-.6-1.947a6.8,6.8,0,0,0-2.627-3.584l-.793-.521a.784.784,0,0,0-1.215.655v.863a4.612,4.612,0,0,0,2.209,3.978l2.043,1.294A.655.655,0,0,0,400.777,245.606Zm0,0" transform="translate(-364.002 -220.332)" fill="#28d05b"/>
    <path id="Path_10920" data-name="Path 10920" d="M349.722,352.994a.607.607,0,1,1-.607-.607A.607.607,0,0,1,349.722,352.994Zm0,0" transform="translate(-320.717 -324.287)" fill="#ff7e40"/>
    <path id="Path_10921" data-name="Path 10921" d="M370.035,381.431a.607.607,0,1,1-.607-.607A.607.607,0,0,1,370.035,381.431Zm0,0" transform="translate(-339.411 -350.457)" fill="#ff7e40"/>
    <path id="Path_10922" data-name="Path 10922" d="M329.41,403.775a.607.607,0,1,1-.607-.607A.607.607,0,0,1,329.41,403.775Zm0,0" transform="translate(-302.025 -371.019)" fill="#ff7e40"/>
    <path id="Path_10923" data-name="Path 10923" d="M253.86,2.24a.607.607,0,0,0-.794-.329l-.364.15.278-.278a.607.607,0,0,0-.859-.859l-.279.278.151-.364a.607.607,0,1,0-1.122-.465l-.33.8,2.193,2.193.8-.33a.607.607,0,0,0,.329-.793Zm0,0" transform="translate(-230.564 0.001)" fill="#28d05b"/>
    <path id="Path_10924" data-name="Path 10924" d="M191.471,12.68a3.041,3.041,0,0,1,4.409.172,3.041,3.041,0,0,1,.172,4.409c-1.265,1.265-4.633,2.582-5.9,1.317s.052-4.633,1.317-5.9Zm0,0" transform="translate(-174.518 -10.871)" fill="#ff5368"/>
    <path id="Path_10925" data-name="Path 10925" d="M196.035,16.572a3.7,3.7,0,0,0-1-.717,2.9,2.9,0,0,1-.545,3.409,7.044,7.044,0,0,1-4.681,1.817,1.909,1.909,0,0,0,.5,1.217c1.265,1.265,4.633-.052,5.9-1.317a3.04,3.04,0,0,0-.172-4.409Zm0,0" transform="translate(-174.673 -14.591)" fill="#d9435b"/>
    <g id="Group_6488" data-name="Group 6488" transform="translate(16.456 2.236)">
      <path id="Path_10926" data-name="Path 10926" d="M229.129,50.193a.607.607,0,1,1-.607-.607A.607.607,0,0,1,229.129,50.193Zm0,0" transform="translate(-226.197 -47.868)" fill="#ffcf5d"/>
      <path id="Path_10927" data-name="Path 10927" d="M207.586,71.736a.607.607,0,1,1-.607-.607A.607.607,0,0,1,207.586,71.736Zm0,0" transform="translate(-206.372 -67.693)" fill="#ffcf5d"/>
      <path id="Path_10928" data-name="Path 10928" d="M207.586,50.193a.607.607,0,1,1-.607-.607A.607.607,0,0,1,207.586,50.193Zm0,0" transform="translate(-206.372 -47.868)" fill="#ffcf5d"/>
      <path id="Path_10929" data-name="Path 10929" d="M229.129,71.736a.607.607,0,1,1-.607-.607A.607.607,0,0,1,229.129,71.736Zm0,0" transform="translate(-226.197 -67.693)" fill="#ffcf5d"/>
      <path id="Path_10930" data-name="Path 10930" d="M250.668,50.193a.607.607,0,1,1-.607-.607A.607.607,0,0,1,250.668,50.193Zm0,0" transform="translate(-246.018 -47.868)" fill="#ffcf5d"/>
      <path id="Path_10931" data-name="Path 10931" d="M229.129,28.65a.607.607,0,1,1-.607-.607A.607.607,0,0,1,229.129,28.65Zm0,0" transform="translate(-226.197 -28.043)" fill="#ffcf5d"/>
    </g>
    <path id="Path_10932" data-name="Path 10932" d="M93.91,109.417a4.049,4.049,0,1,1-4.049-4.049A4.049,4.049,0,0,1,93.91,109.417Zm0,0" transform="translate(-78.97 -96.966)" fill="#5c87bd"/>
    <path id="Path_10933" data-name="Path 10933" d="M97.032,111.129a4.049,4.049,0,0,1-5.462,5.462,4.049,4.049,0,1,0,5.462-5.462Zm0,0" transform="translate(-84.268 -102.267)" fill="#456ea2"/>
    <path id="Path_10934" data-name="Path 10934" d="M121.127,124.356l.178-.178a.607.607,0,1,0-.859-.859l-.178.178-.178-.178a.607.607,0,1,0-.859.859l.178.178-.178.178a.607.607,0,0,0,.859.859l.178-.178.178.178a.607.607,0,1,0,.859-.859Zm0,0" transform="translate(-109.56 -113.322)" fill="#315588"/>
    <path id="Path_10935" data-name="Path 10935" d="M292.77,102.621a.624.624,0,0,0-.81-.3l-.34.141.261-.26a.625.625,0,0,0,.031-.863.608.608,0,0,0-.872-.013l-.278.278.151-.363a.607.607,0,0,0-1.122-.465l-.33.8a.6.6,0,0,0,.046.554.657.657,0,0,1-.083.816l-.005,0a.628.628,0,0,0-.007.888.607.607,0,0,0,.848-.01.665.665,0,0,1,.846-.1.605.605,0,0,0,.549.043l.8-.33A.607.607,0,0,0,292.77,102.621Zm0,0" transform="translate(-266.167 -92.391)" fill="#28d05b"/>
    <path id="Path_10936" data-name="Path 10936" d="M233.409,129.849a1.212,1.212,0,0,0-1.208.351l-1.993-.622-1.475,1.548-.626,2.335-.022-.007a1.215,1.215,0,1,0,.858,1.488,1.2,1.2,0,0,0,.017-.567,1.216,1.216,0,0,0,2.336-.67,1.215,1.215,0,1,0,2.026-1.2,1.217,1.217,0,0,0-.529-.31,1.215,1.215,0,0,0,.615-2.35Zm0,0" transform="translate(-208.491 -119.246)" fill="#d9435b"/>
    <path id="Path_10937" data-name="Path 10937" d="M238.963,110.951a1.374,1.374,0,0,1-2.661.588,1.215,1.215,0,0,0-.287,2.4,9.283,9.283,0,0,0,2,1.752h.006a1.216,1.216,0,0,0,.854-2.073,1.2,1.2,0,0,0-.539-.313,1.215,1.215,0,0,0,.623-2.348Zm0,0" transform="translate(-215.763 -102.064)" fill="#ff5368"/>
  </g>
</svg>
