<svg xmlns="http://www.w3.org/2000/svg" width="48.489" height="44.539" viewBox="0 0 48.489 44.539">
  <g id="housegold" transform="translate(-156 -367.482)">
    <g id="FLAT" transform="translate(155.788 367.482)">
      <path id="Path_11060" data-name="Path 11060" d="M354.355,176h8.993a2.355,2.355,0,0,1,2.355,2.355v28.479H352V178.355A2.355,2.355,0,0,1,354.355,176Z" transform="translate(-317.003 -162.296)" fill="#faa6b2"/>
      <path id="Path_11061" data-name="Path 11061" d="M400,96h3.426v6H400Z" transform="translate(-359.864 -90.861)" fill="#e2e2e2"/>
      <path id="Path_11062" data-name="Path 11062" d="M400,96h3.426v.857H400Z" transform="translate(-359.864 -90.861)" fill="#cbcbcb"/>
      <path id="Path_11063" data-name="Path 11063" d="M297.766,48A15.634,15.634,0,0,0,288,51.426l2.57,1.713,3.394-1.358a4.968,4.968,0,0,1,1.845-.355h2.469l1.713,1.713h3.426l1.713-1.713V48Z" transform="translate(-259.854 -48)" fill="#e2e2e2"/>
      <path id="Path_11064" data-name="Path 11064" d="M392,144h5.139v3.426H392Z" transform="translate(-352.72 -133.722)" fill="#e2e2e2"/>
      <path id="Path_11065" data-name="Path 11065" d="M408,144h1.713v3.426H408Z" transform="translate(-367.007 -133.722)" fill="#cbcbcb"/>
      <g id="Group_6508" data-name="Group 6508" transform="translate(34.141 18.843)">
        <path id="Path_11066" data-name="Path 11066" d="M352,224h7.709a.857.857,0,0,1,.857.856v15.417a.857.857,0,0,1-.857.856H352Z" transform="translate(-351.143 -224)" fill="#d88f9a"/>
        <path id="Path_11067" data-name="Path 11067" d="M352.565,425.713h-7.709a.857.857,0,1,1,0-1.713h7.709a.857.857,0,0,1,0,1.713Z" transform="translate(-344 -402.587)" fill="#d88f9a"/>
        <path id="Path_11068" data-name="Path 11068" d="M451.426,425.713h-2.57a.857.857,0,0,1,0-1.713h2.57Z" transform="translate(-436.865 -402.587)" fill="#d88f9a"/>
      </g>
      <path id="Path_11069" data-name="Path 11069" d="M206.133,292.556H195a3,3,0,0,1-3-3V275.212A3.212,3.212,0,0,1,195.212,272h10.706a3.212,3.212,0,0,1,3.212,3.212v14.347A3,3,0,0,1,206.133,292.556Z" transform="translate(-174.133 -248.018)" fill="#92d1f7"/>
      <path id="Path_11070" data-name="Path 11070" d="M224,224h10.278v5.139H224Z" transform="translate(-202.707 -205.157)" fill="#e2e2e2"/>
      <path id="Path_11071" data-name="Path 11071" d="M248,224h1.713v5.139H248Z" transform="translate(-224.138 -205.157)" fill="#cbcbcb"/>
      <path id="Path_11072" data-name="Path 11072" d="M280,224h1.713v5.139H280Z" transform="translate(-252.711 -205.157)" fill="#cbcbcb"/>
      <path id="Path_11073" data-name="Path 11073" d="M256,160h3.426v3.426H256Z" transform="translate(-231.281 -148.009)" fill="#e2e2e2"/>
      <path id="Path_11074" data-name="Path 11074" d="M256,160h3.426v.857H256Z" transform="translate(-231.281 -148.009)" fill="#cbcbcb"/>
      <path id="Path_11075" data-name="Path 11075" d="M210.278,131.426H206l-4.283,1.713L200,130.57l5.139-2.57h5.139a1.713,1.713,0,1,1,0,3.426Z" transform="translate(-181.277 -119.435)" fill="#e2e2e2"/>
      <path id="Path_11076" data-name="Path 11076" d="M248,192h5.139v3.426H248Z" transform="translate(-224.138 -176.583)" fill="#e2e2e2"/>
      <path id="Path_11077" data-name="Path 11077" d="M248,216h5.139v.857H248Z" transform="translate(-224.138 -198.013)" fill="#cbcbcb"/>
      <path id="Path_11078" data-name="Path 11078" d="M192,312h7.923a2.355,2.355,0,0,1,2.355,2.355v7.28a2.355,2.355,0,0,1-2.355,2.355H192Z" transform="translate(-174.133 -283.735)" fill="#5ebef7"/>
      <path id="Path_11079" data-name="Path 11079" d="M32,416H52.556v2.784a2.355,2.355,0,0,1-2.355,2.355H34.355A2.355,2.355,0,0,1,32,418.784Z" transform="translate(-31.263 -376.6)" fill="#ff8181"/>
      <path id="Path_11080" data-name="Path 11080" d="M54.962,351.265H43.881a3.881,3.881,0,1,1,1.326-7.528,12.333,12.333,0,0,0,8.429,0,3.881,3.881,0,1,1,1.326,7.528Z" transform="translate(-38.407 -311.865)" fill="#fbb540"/>
      <path id="Path_11081" data-name="Path 11081" d="M99.424,370.125a8.992,8.992,0,0,1-2.84-.458.856.856,0,1,1,.542-1.625,7.317,7.317,0,0,0,4.6,0,.856.856,0,1,1,.542,1.625A8.991,8.991,0,0,1,99.424,370.125Z" transform="translate(-88.409 -333.737)" fill="#d18d28"/>
      <circle id="Ellipse_17" data-name="Ellipse 17" cx="2.5" cy="2.5" r="2.5" transform="translate(8.212 21.518)" fill="#5ebef7"/>
      <ellipse id="Ellipse_18" data-name="Ellipse 18" cx="1" cy="0.5" rx="1" ry="0.5" transform="translate(9.212 23.518)" fill="#92d1f7"/>
      <circle id="Ellipse_19" data-name="Ellipse 19" cx="3.5" cy="3.5" r="3.5" transform="translate(0.212 13.518)" fill="#5ebef7"/>
      <ellipse id="Ellipse_20" data-name="Ellipse 20" cx="2" cy="1.5" rx="2" ry="1.5" transform="translate(1.212 14.518)" fill="#92d1f7"/>
      <ellipse id="Ellipse_21" data-name="Ellipse 21" cx="2.5" cy="2" rx="2.5" ry="2" transform="translate(7.212 5.518)" fill="#5ebef7"/>
      <path id="Path_11082" data-name="Path 11082" d="M384,80h6.852l-1.713,1.713h-3.426Z" transform="translate(-345.577 -76.574)" fill="#b9b9b9"/>
      <circle id="Ellipse_22" data-name="Ellipse 22" cx="0.5" cy="0.5" r="0.5" transform="translate(8.212 6.518)" fill="#92d1f7"/>
    </g>
  </g>
</svg>
