<svg xmlns="http://www.w3.org/2000/svg" width="195.766" height="101" viewBox="0 0 195.766 101">
  <g id="Group_7364" data-name="Group 7364" transform="translate(0.001)">
    <path id="Path_11205" data-name="Path 11205" d="M291.192,497.254c.584.2,1.173.376,1.765.541H290.4q-.714-.251-1.417-.541c-.1-.041-.208-.084-.311-.127a26.281,26.281,0,0,1-10.112-7.292,20.454,20.454,0,0,1-3.19-5.21,23.6,23.6,0,0,1-1.633-6.667,47.453,47.453,0,0,1,.938-14.143,58.971,58.971,0,0,1,4.613-13.832q.381-.791.784-1.574a.318.318,0,0,1,.2-.176.355.355,0,0,1,.268.057.418.418,0,0,1,.165.552,58.311,58.311,0,0,0-4.894,13.332,51.184,51.184,0,0,0-1.455,13.878,22.136,22.136,0,0,0,3.9,12.148,24.491,24.491,0,0,0,9.174,7.527A30.809,30.809,0,0,0,291.192,497.254Z" transform="translate(-260.665 -397.877)" fill="#fff"/>
    <path id="Path_11206" data-name="Path 11206" d="M361.749,561h-.992c-.141-.178-.276-.36-.408-.541a21.972,21.972,0,0,1-3.893-8.947,21.469,21.469,0,0,1,1.849-13.348,22.063,22.063,0,0,1,2-3.309c.27.057.538.122.8.2a20.743,20.743,0,0,0,.205,25.4C361.455,560.648,361.6,560.829,361.749,561Z" transform="translate(-322.069 -461.087)" fill="#fff"/>
    <path id="Path_11207" data-name="Path 11207" d="M501.967,382.742a2.9,2.9,0,0,0-2.6-3.619l-16.524-20.659-4.089,3.811,17.456,19.734a2.92,2.92,0,0,0,5.753.733Z" transform="translate(-412.886 -332.383)" fill="#ffb8b8"/>
    <path id="Path_11208" data-name="Path 11208" d="M475.722,349.163l-5.222,4a1.3,1.3,0,0,1-1.931-.4l-3.181-5.734a3.617,3.617,0,0,1,5.756-4.381l4.693,4.55a1.3,1.3,0,0,1-.115,1.969Z" transform="translate(-402.308 -319.799)" fill="#226bff"/>
    <circle id="Ellipse_566" data-name="Ellipse 566" cx="6.641" cy="6.641" r="6.641" transform="translate(58.133 3.61)" fill="#ffb8b8"/>
    <path id="Path_11209" data-name="Path 11209" d="M294.579,339.764h3.315l-.316-6.2h-4.892Z" transform="translate(-216.171 -243.375)" fill="#ffb8b8"/>
    <path id="Path_11210" data-name="Path 11210" d="M522.468,614.5H529a4.16,4.16,0,0,1,4.16,4.16v.135H522.468Z" transform="translate(-445.016 -519.196)" fill="#2f2e41"/>
    <path id="Path_11211" data-name="Path 11211" d="M168.975,323.4l2.82,1.742,2.992-5.444-3.413-2.135Z" transform="translate(-124.806 -231.701)" fill="#ffb8b8"/>
    <path id="Path_11212" data-name="Path 11212" d="M388.234,596.1l5.554,3.431h0a4.16,4.16,0,0,1,1.353,5.725l-.071.115-9.093-5.617Z" transform="translate(-344.166 -505.768)" fill="#2f2e41"/>
    <path id="Path_11213" data-name="Path 11213" d="M430.817,468.821a1.214,1.214,0,0,1-1.135-.784l-11.99-28.667a.406.406,0,0,0-.717-.087L400.5,465.231a1.212,1.212,0,0,1-1.524.424l-2.254-1.052a1.222,1.222,0,0,1-.6-1.6l13.495-30.081c-.295-.717-3.169-8.078,1.247-11.714l.031-.019,11.975-5.341.3,9.186,11.935,41.411a1.217,1.217,0,0,1-.859,1.514l-3.126.823a1.222,1.222,0,0,1-.312.041Z" transform="translate(-351.869 -374.251)" fill="#2f2e41"/>
    <path id="Path_11214" data-name="Path 11214" d="M456.965,342.007c-.456-1.83-1.1-3.675-1.969-4.526a10.983,10.983,0,0,1-.9-.987,6.562,6.562,0,0,0-2.15-1.761c.305-.17.484-.372.484-.59,0-.6-1.332-1.082-2.974-1.082s-2.974.484-2.974,1.082a.528.528,0,0,0,.177.364,6.329,6.329,0,0,0-3.913,5.276c-.384,4.114-.5,9.373.85,12.7a12.245,12.245,0,0,1,.253,8.63,1.08,1.08,0,0,0,1.43,1.344l11.882-4.788a1.081,1.081,0,0,0,.677-1v-7.272a30.537,30.537,0,0,0-.877-7.384Z" transform="translate(-385.98 -313.848)" fill="#1ac57f"/>
    <path id="Path_11215" data-name="Path 11215" d="M402.214,396.764a2.9,2.9,0,0,0,2.013-3.973l9.3-24.516-4.714-1.217-8.6,24.264a2.92,2.92,0,0,0,2,5.443Z" transform="translate(-353.545 -338.653)" fill="#ffb8b8"/>
    <path id="Path_11216" data-name="Path 11216" d="M435.513,355.763l-5.957-2.789a1.3,1.3,0,0,1-.534-1.9l3.621-5.468a3.617,3.617,0,1,1,6.542,3.086l-1.872,6.263a1.3,1.3,0,0,1-1.8.806Z" transform="translate(-375.816 -321.489)" fill="#1ac57f"/>
    <path id="Path_11217" data-name="Path 11217" d="M441.027,272.393a1.514,1.514,0,0,0,.871-.157c.49-.321.442-1.049.276-1.611a8.382,8.382,0,0,0-5.773-5.618c-.945-.251-2.142-.242-2.682.574a6.829,6.829,0,0,0-8.835,1.085,9.251,9.251,0,0,0-2.074,4.419c-.567,2.78-3,8.515-1.651,11.012.9,1.662,5.018.367,6.762,1.091a5.759,5.759,0,0,0,5.412-.437,4.416,4.416,0,0,0,1.7-4.979,15.407,15.407,0,0,0-1.053-1.917,3.085,3.085,0,0,1-.457-2.093C433.764,272.651,439.006,272.351,441.027,272.393Z" transform="translate(-369.977 -263.776)" fill="#2f2e41"/>
    <path id="Path_11218" data-name="Path 11218" d="M354.874,629.83a.269.269,0,0,1-.27.27H226.177a.27.27,0,1,1,0-.541H354.6a.269.269,0,0,1,.27.27Z" transform="translate(-225.907 -530.182)" fill="#3f3d56"/>
    <ellipse id="Ellipse_567" data-name="Ellipse 567" cx="9.463" cy="1.622" rx="9.463" ry="1.622" transform="translate(133.988 97.755)" fill="#1ac57f"/>
    <path id="Path_11219" data-name="Path 11219" d="M874.593,630.541h-36.23a.27.27,0,0,1,0-.541h36.23a.27.27,0,0,1,0,.541Z" transform="translate(-679.098 -530.503)" fill="#3f3d56"/>
    <path id="Path_11220" data-name="Path 11220" d="M734.149,334.514a12.879,12.879,0,0,1,10.172-12.59,12.877,12.877,0,1,0,0,25.18,12.88,12.88,0,0,1-10.174-12.591Z" transform="translate(-597.539 -305.513)" fill="#1ac57f"/>
    <path id="Path_11221" data-name="Path 11221" d="M677.938,291.589a28.788,28.788,0,0,1,25.267-28.57,28.8,28.8,0,0,0-32.3,28.57c0,12.912,18.988,49.323,26.12,62.542a3.025,3.025,0,0,0,5.328,0c.267-.495.552-1.026.851-1.583C695.53,338.215,677.938,304.017,677.938,291.589Z" transform="translate(-555.209 -262.587)" fill="#1ac57f"/>
    <path id="Path_11222" data-name="Path 11222" d="M699.054,355.458a3.252,3.252,0,0,1-2.9-1.733C688.289,339.149,670,303.863,670,291.055a29.055,29.055,0,1,1,58.109,0c0,12.81-18.289,48.095-26.153,62.67A3.252,3.252,0,0,1,699.054,355.458Zm0-92.918a28.546,28.546,0,0,0-28.514,28.514c0,12.686,18.244,47.874,26.088,62.414a2.755,2.755,0,0,0,4.852,0c7.844-14.54,26.088-49.727,26.088-62.414a28.546,28.546,0,0,0-28.514-28.514Z" transform="translate(-556.453 -262)" fill="#3f3d56"/>
    <path id="Path_11223" data-name="Path 11223" d="M741.981,347.129a13.148,13.148,0,1,1,13.147-13.147,13.148,13.148,0,0,1-13.147,13.147Zm0-25.754a12.607,12.607,0,1,0,12.607,12.607,12.607,12.607,0,0,0-12.607-12.607Z" transform="translate(-597.896 -304.927)" fill="#3f3d56"/>
  </g>
</svg>
