<svg xmlns="http://www.w3.org/2000/svg" width="22.019" height="26.423" viewBox="0 0 22.019 26.423">
  <path id="Icon_ionic-md-notifications-outline" data-name="Icon ionic-md-notifications-outline" d="M16.7,7.978a8.922,8.922,0,0,1,1.5.284A6.455,6.455,0,0,1,23.052,14.6V22.71l.583.595.487.5H9.147l.487-.5.583-.595V14.6a6.455,6.455,0,0,1,4.859-6.342,10.925,10.925,0,0,1,1.5-.284m.063-4.6a1.927,1.927,0,0,0-1.943,1.982v.925A8.537,8.537,0,0,0,8.215,14.6v7.266l-2.59,2.642v1.321H27.644V24.514l-2.59-2.642V14.6a8.537,8.537,0,0,0-6.476-8.323V5.357a1.927,1.927,0,0,0-1.943-1.982Zm2.59,23.781H14.044a2.591,2.591,0,1,0,5.181,0Z" transform="translate(-5.625 -3.375)" fill="#fff"/>
</svg>
