<svg xmlns="http://www.w3.org/2000/svg" width="27" height="27" viewBox="0 0 27 27">
  <g id="Group_7348" data-name="Group 7348" transform="translate(-32 -489)">
    <g id="setting">
      <g id="Group_6576" data-name="Group 6576" transform="translate(32 489.036)">
        <g id="Ellipse_495" data-name="Ellipse 495" transform="translate(0 -0.036)" fill="#1ac57f" stroke="#fff" stroke-width="1">
          <circle cx="13.5" cy="13.5" r="13.5" stroke="none"/>
          <circle cx="13.5" cy="13.5" r="13" fill="none"/>
        </g>
      </g>
      <g id="Icon_feather-settings" data-name="Icon feather-settings" transform="translate(39 496.277)">
        <path id="Path_11169" data-name="Path 11169" d="M16.909,15.273A1.706,1.706,0,1,1,15.2,13.5,1.74,1.74,0,0,1,16.909,15.273Z" transform="translate(-8.955 -8.772)" fill="none" stroke="#fff" stroke-linecap="round" stroke-linejoin="round" stroke-width="1.2"/>
        <path id="Path_11170" data-name="Path 11170" d="M11.955,9.774a1,1,0,0,0,.187,1.076l.034.035a1.216,1.216,0,0,1,0,1.673,1.106,1.106,0,0,1-1.608,0l-.034-.035a.911.911,0,0,0-1.034-.2.977.977,0,0,0-.568.892v.1a1.137,1.137,0,1,1-2.273,0v-.053a.973.973,0,0,0-.614-.892.911.911,0,0,0-1.034.2l-.034.035a1.106,1.106,0,0,1-1.608,0,1.216,1.216,0,0,1,0-1.673L3.4,10.9a1,1,0,0,0,.188-1.076.937.937,0,0,0-.858-.591h-.1a1.183,1.183,0,0,1,0-2.364h.051a.941.941,0,0,0,.858-.638,1,1,0,0,0-.188-1.076l-.034-.035a1.216,1.216,0,0,1,0-1.673,1.106,1.106,0,0,1,1.608,0l.034.035A.911.911,0,0,0,6,3.675h.045a.977.977,0,0,0,.568-.892v-.1a1.137,1.137,0,1,1,2.273,0v.053a.977.977,0,0,0,.568.892.911.911,0,0,0,1.034-.2l.034-.035a1.106,1.106,0,0,1,1.608,0,1.216,1.216,0,0,1,0,1.673l-.034.035a1,1,0,0,0-.187,1.076v.047a.937.937,0,0,0,.858.591h.1a1.183,1.183,0,0,1,0,2.364h-.051a.937.937,0,0,0-.858.591Z" transform="translate(-1.5 -1.5)" fill="none" stroke="#fff" stroke-linecap="round" stroke-linejoin="round" stroke-width="1.2"/>
      </g>
    </g>
  </g>
</svg>
