<svg xmlns="http://www.w3.org/2000/svg" width="41" height="31" viewBox="0 0 41 31">
  <g id="veggies" style="isolation: isolate">
    <g id="Color_copy" data-name="Color copy">
      <g id="Group_6498" data-name="Group 6498">
        <path id="Path_10938" data-name="Path 10938" d="M45.5,37.6a1.4,1.4,0,0,0,1.891-1.325,2.12,2.12,0,1,0,0-4.241,2.1,2.1,0,0,0-1.039.283,2.12,2.12,0,0,0-.4-.463A1.41,1.41,0,1,0,44.295,29.6a2.106,2.106,0,0,0-3.887.466,2.113,2.113,0,0,0-2.173,3.559,1.409,1.409,0,1,0,1.908,1.908,2.106,2.106,0,0,0,1.6.739A2.113,2.113,0,0,0,45.5,37.6Z" transform="translate(-13.109 -22.415)" fill="#5ba006"/>
        <g id="Group_6489" data-name="Group 6489" transform="translate(20.47 0.172)">
          <path id="Path_10939" data-name="Path 10939" d="M4.241,0A4.241,4.241,0,0,1,8.482,4.241a2.12,2.12,0,0,1-2.12,2.12H2.12A2.12,2.12,0,0,1,0,4.241,4.241,4.241,0,0,1,4.241,0Z" transform="translate(6.227 0) rotate(45)" fill="#f9e109"/>
          <path id="Path_10940" data-name="Path 10940" d="M32.687,35.23a2.5,2.5,0,0,1,.233-3.735l2.266-1.763,3,3L36.422,35a2.5,2.5,0,0,1-3.735.233Z" transform="translate(-31.956 -23.73)" fill="#fcbc04"/>
          <path id="Path_10941" data-name="Path 10941" d="M42.972,28.537a2.12,2.12,0,0,1-3,0l-3-3a2.076,2.076,0,0,1-.343-.469,4.131,4.131,0,0,0-.364.3,2.12,2.12,0,0,0,0,3l3,3a2.12,2.12,0,0,0,3,0,4.211,4.211,0,0,0,1.2-3.432,4.227,4.227,0,0,1-.495.6Z" transform="translate(-33.038 -22.363)" fill="#fcbc04"/>
          <path id="Path_10942" data-name="Path 10942" d="M35.189,29.732l-.786.612c.028.031.049.065.079.095l2.545,2.545A2.482,2.482,0,0,1,32.7,31.716,2.489,2.489,0,1,0,36.428,35l1.763-2.266Z" transform="translate(-31.959 -23.73)" fill="#e59730"/>
        </g>
        <g id="Group_6491" data-name="Group 6491" transform="translate(11.308 1.415)">
          <path id="Path_10943" data-name="Path 10943" d="M19,28.655a2.827,2.827,0,0,1,2.268-2.771,2.094,2.094,0,0,1-.148-.763,2.12,2.12,0,0,1,4.241,0c0,.035-.008.071-.011.1a2.8,2.8,0,0,1,.717-.1A2.827,2.827,0,0,1,28.9,27.948a2.793,2.793,0,0,1-.353,1.343,2.8,2.8,0,0,1-.391,4.647,2.145,2.145,0,0,1,.037.372,2.12,2.12,0,0,1-2.12,2.12,2.1,2.1,0,0,1-1.039-.283,2.116,2.116,0,0,1-3.75-1.929,2.782,2.782,0,0,1-.676-3.025A2.819,2.819,0,0,1,19,28.655Z" transform="translate(-18.996 -23)" fill="#a1d51c"/>
          <path id="Path_10944" data-name="Path 10944" d="M28.894,30.986a2.1,2.1,0,0,1-1.039-.283,2.116,2.116,0,0,1-3.75-1.929,2.782,2.782,0,0,1-.676-3.025,2.827,2.827,0,0,1-1.555-2.03,2.082,2.082,0,0,0-.611,2.376A2.819,2.819,0,0,0,20.6,31.4a2.782,2.782,0,0,0,.676,3.025,2.117,2.117,0,0,0,3.754,1.929,2.1,2.1,0,0,0,1.039.283,2.12,2.12,0,0,0,2.12-2.12,2.145,2.145,0,0,0-.037-.372A2.816,2.816,0,0,0,29.6,31.693a2.716,2.716,0,0,0-.131-.8A2.092,2.092,0,0,1,28.894,30.986Z" transform="translate(-18.994 -23.211)" fill="#7ab92d"/>
          <g id="Group_6490" data-name="Group 6490" transform="translate(2.125 3.535)">
            <path id="Path_10945" data-name="Path 10945" d="M27.3,35.612h-.028a.707.707,0,0,1-.679-.734A10.461,10.461,0,0,0,25.1,29.072a.707.707,0,1,1,1.212-.728A11.864,11.864,0,0,1,28,34.933a.707.707,0,0,1-.708.679Z" transform="translate(-22.881 -28.001)" fill="#5ba006"/>
            <path id="Path_10946" data-name="Path 10946" d="M26.029,32.534a.7.7,0,0,1-.276-.057l-3.322-1.414a.707.707,0,1,1,.554-1.3L25.661,30.9l.636-1.475a.707.707,0,1,1,1.3.561l-.919,2.12A.707.707,0,0,1,26.029,32.534Z" transform="translate(-22.001 -28.294)" fill="#5ba006"/>
            <path id="Path_10947" data-name="Path 10947" d="M27,37.181a.693.693,0,0,1-.3-.065l-2.3-1.06a.707.707,0,1,1,.591-1.284l1.767.812.894-1.281a.707.707,0,1,1,1.159.809l-1.232,1.767A.707.707,0,0,1,27,37.181Z" transform="translate(-22.579 -29.76)" fill="#5ba006"/>
          </g>
        </g>
        <g id="Group_6493" data-name="Group 6493" transform="translate(0.71)">
          <path id="Path_10948" data-name="Path 10948" d="M4,23.12a2.12,2.12,0,0,1,3.868-1.2,2.822,2.822,0,0,1,3.844,2.024,2.749,2.749,0,0,1,3.225,1.332,2.145,2.145,0,0,1,.372-.034,2.12,2.12,0,0,1,2.12,2.12,2.1,2.1,0,0,1-.455,1.3,2.8,2.8,0,0,1-.688,3.789A2.113,2.113,0,1,1,12.572,34.3a2.74,2.74,0,0,1-2.827-.737A2.116,2.116,0,0,1,6.988,30.8a2.745,2.745,0,0,1-.762-2.747c-.035,0-.071.011-.106.011a2.112,2.112,0,0,1-1.57-3.534A2.1,2.1,0,0,1,4,23.12Z" transform="translate(-4 -20.998)" fill="#c4f236"/>
          <path id="Path_10949" data-name="Path 10949" d="M16.537,32.245a2.079,2.079,0,0,1-2.552-1.469,2.74,2.74,0,0,1-2.827-.737A2.116,2.116,0,0,1,8.4,27.279a2.745,2.745,0,0,1-.762-2.747c-.035,0-.071.009-.106.009a2.111,2.111,0,0,1-1.583-3.517,2.1,2.1,0,0,0-1.4,3.517,2.112,2.112,0,0,0,1.57,3.534c.035,0,.071-.008.1-.011a2.745,2.745,0,0,0,.762,2.747,2.116,2.116,0,0,0,2.757,2.76,2.74,2.74,0,0,0,2.827.737,2.114,2.114,0,1,0,3.717-1.851A3.114,3.114,0,0,0,16.537,32.245Z" transform="translate(-4 -21.006)" fill="#a1d51c"/>
          <g id="Group_6492" data-name="Group 6492" transform="translate(2.12 2.122)">
            <path id="Path_10950" data-name="Path 10950" d="M15.08,34.733a.707.707,0,0,1-.666-.469,14.141,14.141,0,0,0-7.024-7.92.707.707,0,1,1,.632-1.265,15.55,15.55,0,0,1,7.723,8.709.707.707,0,0,1-.665.945Z" transform="translate(-6.999 -24.294)" fill="#7ab92d"/>
            <path id="Path_10951" data-name="Path 10951" d="M13.534,31.534H10.707a.707.707,0,1,1,0-1.414h2.318l.546-1.637a.708.708,0,0,1,1.343.447l-.707,2.12A.707.707,0,0,1,13.534,31.534Z" transform="translate(-7.879 -25.172)" fill="#7ab92d"/>
            <path id="Path_10952" data-name="Path 10952" d="M8.706,28.241A.707.707,0,0,1,8.39,26.9l1.023-.511V24.707a.707.707,0,1,1,1.414,0v2.12a.707.707,0,0,1-.391.633l-1.414.707A.707.707,0,0,1,8.706,28.241Z" transform="translate(-7.292 -24)" fill="#7ab92d"/>
            <path id="Path_10953" data-name="Path 10953" d="M16.534,35.325a.72.72,0,0,1-.095-.006l-2.827-.379a.707.707,0,1,1,.188-1.4l2.158.289.587-3.251a.707.707,0,1,1,1.391.252l-.707,3.913A.707.707,0,0,1,16.534,35.325Z" transform="translate(-8.758 -25.758)" fill="#7ab92d"/>
          </g>
        </g>
        <g id="Group_6494" data-name="Group 6494" transform="translate(2.83 14.731)">
          <path id="Path_10954" data-name="Path 10954" d="M7,38H39.514v1.414A11.309,11.309,0,0,1,28.2,50.723h-9.9A11.309,11.309,0,0,1,7,39.414Z" transform="translate(-7 -38)" fill="#84d2f4"/>
          <path id="Path_10955" data-name="Path 10955" d="M38.254,43.874a7.054,7.054,0,0,0-11.1-.657,2.116,2.116,0,0,0-1.78-.975c-.043,0-.083.01-.126.013a2.111,2.111,0,0,0-4.056.212,1.414,1.414,0,1,0-.766,2.6c.046,0,.089-.009.134-.013a1.973,1.973,0,0,0-.013,1.4A11.3,11.3,0,0,1,10.2,38H7v1.414A11.309,11.309,0,0,0,18.309,50.723h9.9a11.3,11.3,0,0,0,10.578-7.339c-.175.165-.344.336-.529.49Z" transform="translate(-7 -38)" fill="#57b7eb"/>
        </g>
        <path id="Path_10956" data-name="Path 10956" d="M34.478,45.533a2.12,2.12,0,0,0-2.12-2.12c-.043,0-.083.01-.126.013a2.111,2.111,0,0,0-4.056.212,1.414,1.414,0,1,0-.766,2.6c.046,0,.089-.009.134-.013a2.04,2.04,0,0,0,.021,1.509,2.115,2.115,0,1,0,1.965,3.6,2.1,2.1,0,0,0,3.435-.962,2.1,2.1,0,0,0,.962-3.432,2.1,2.1,0,0,0,.551-1.414Z" transform="translate(-9.736 -24.441)" fill="#c4f236"/>
        <path id="Path_10957" data-name="Path 10957" d="M33.516,44.491a2.107,2.107,0,0,1-.551.261,2.1,2.1,0,0,1-3.435.962,2.106,2.106,0,0,1-3.38-.785,1.4,1.4,0,0,0-.154.629,1.414,1.414,0,0,0,1.414,1.414c.046,0,.089-.009.134-.013a2.04,2.04,0,0,0,.021,1.509,2.115,2.115,0,1,0,1.965,3.6,2.1,2.1,0,0,0,3.435-.962,2.1,2.1,0,0,0,.962-3.432,2.1,2.1,0,0,0-.411-3.187Z" transform="translate(-9.736 -25.172)" fill="#a1d51c"/>
        <g id="Group_6495" data-name="Group 6495" transform="translate(23.76 11.904)">
          <circle id="Ellipse_1" data-name="Ellipse 1" cx="7.068" cy="7.068" r="7.068" transform="translate(0.024 4.948)" fill="#f89c8d"/>
          <path id="Path_10958" data-name="Path 10958" d="M47.237,49.474a7.068,7.068,0,0,1-6.644-4.665l1.7-1.7.978,4.658,2.557-3.244,1.429,3.55,2.714-3.283a7.075,7.075,0,1,0,.778,3.743,7.03,7.03,0,0,1-3.507.939Z" transform="translate(-36.611 -36.045)" fill="#f8664f"/>
          <path id="Path_10959" data-name="Path 10959" d="M55.007,34a7.437,7.437,0,0,0-6.05,3.114l-1.312,1.834,2.12.707a7.769,7.769,0,0,1,6.771-2.17l.3.049.212-1.05A2.077,2.077,0,0,0,55.007,34Z" transform="translate(-39.846 -34)" fill="#a1d51c"/>
          <path id="Path_10960" data-name="Path 10960" d="M54.006,36.807a14.023,14.023,0,0,1-3.663-.464A7.422,7.422,0,0,0,48.956,37.8l-1.311,1.833,2.12.707a7.769,7.769,0,0,1,6.771-2.17l.3.049.212-1.05a2.045,2.045,0,0,0,.011-.678A14.536,14.536,0,0,1,54.006,36.807Z" transform="translate(-39.846 -34.687)" fill="#7ab92d"/>
          <path id="Path_10961" data-name="Path 10961" d="M42.192,38.14l-.489.611a2.5,2.5,0,0,0-.368,2.486l.874,2.184,2.12-2.12.978,4.658,2.557-3.244,1.429,3.55,2.762-3.338a2.5,2.5,0,0,0-2.335-4.052l-.884.147a2.492,2.492,0,0,1-1.795-.385l-1.515-1.011a2.5,2.5,0,0,0-3.334.515Z" transform="translate(-37.944 -34.94)" fill="#a1d51c"/>
          <path id="Path_10962" data-name="Path 10962" d="M50.69,42.01c-3.514,0-6.361-2.057-6.361-4.594,0-.065.01-.129.013-.194a2.487,2.487,0,0,0-2.15.919l-.489.611a2.5,2.5,0,0,0-.368,2.486l.874,2.185,2.12-2.12.978,4.658,2.557-3.244,1.429,3.55,2.762-3.338a2.491,2.491,0,0,0,.515-1.12A8.663,8.663,0,0,1,50.69,42.01Z" transform="translate(-37.944 -34.942)" fill="#7ab92d"/>
        </g>
        <g id="Group_6497" data-name="Group 6497" transform="translate(0 22.505)">
          <path id="Path_10963" data-name="Path 10963" d="M10.037,54.229l.707,1.224-4.62,3.322a1.278,1.278,0,1,1-1.273-2.2Z" transform="translate(-3.319 -50.532)" fill="#a1d51c"/>
          <path id="Path_10964" data-name="Path 10964" d="M10.033,54.229l-5.186,2.34a1.238,1.238,0,0,0-.283.181,1.208,1.208,0,0,0,.16,0l2.6-.26L6.12,57.36a1.272,1.272,0,0,1-1.806-.332A1.272,1.272,0,0,0,6.12,58.774l4.62-3.322Z" transform="translate(-3.315 -50.532)" fill="#7ab92d"/>
          <path id="Path_10965" data-name="Path 10965" d="M10.037,53.785l.707-1.224-4.62-3.322a1.279,1.279,0,1,0-1.273,2.2Z" transform="translate(-3.319 -48.998)" fill="#c4f236"/>
          <path id="Path_10966" data-name="Path 10966" d="M8.315,51.214a1.555,1.555,0,0,1-1.686.269L4.144,50.362a1.276,1.276,0,0,0,.707,1.484l5.187,2.339.707-1.224Z" transform="translate(-3.32 -49.398)" fill="#a1d51c"/>
          <path id="Path_10967" data-name="Path 10967" d="M10.068,53.763v1.414l-5.662.565a1.279,1.279,0,1,1,0-2.545Z" transform="translate(-2.997 -50.228)" fill="#c4f236"/>
          <path id="Path_10968" data-name="Path 10968" d="M10.067,53.894,7.522,53.64a2.115,2.115,0,0,1-1.3.64l-1.812.18a1.279,1.279,0,0,1-1.19-.565,1.272,1.272,0,0,0,1.19,1.979l5.662-.565Z" transform="translate(-2.996 -50.359)" fill="#a1d51c"/>
          <path id="Path_10969" data-name="Path 10969" d="M10,53.371a3.927,3.927,0,0,0,4.228,3.916l11.33-.872a3.053,3.053,0,0,0,0-6.089l-11.33-.872A3.927,3.927,0,0,0,10,53.371Z" transform="translate(-5.049 -49.129)" fill="#f89c8d"/>
          <path id="Path_10970" data-name="Path 10970" d="M27.073,54.786,15.759,53.732A3.928,3.928,0,0,1,12.2,50.011a3.927,3.927,0,0,0,2.028,7.442l11.33-.872a3.053,3.053,0,0,0,2.592-1.893,3.039,3.039,0,0,1-1.077.1Z" transform="translate(-5.049 -49.295)" fill="#f8664f"/>
          <g id="Group_6496" data-name="Group 6496" transform="translate(9.192 0.326)">
            <path id="Path_10971" data-name="Path 10971" d="M16,49.46l1.414.106v2.4a.707.707,0,1,1-1.414,0Z" transform="translate(-16 -49.46)" fill="#cc5144"/>
            <path id="Path_10972" data-name="Path 10972" d="M22.414,55.707v2.827L21,58.64V55.707a.707.707,0,1,1,1.414,0Z" transform="translate(-17.466 -51.084)" fill="#cc5144"/>
            <path id="Path_10973" data-name="Path 10973" d="M24,50.08l1.414.106v2.665a.707.707,0,1,1-1.414,0Z" transform="translate(-18.345 -49.642)" fill="#cc5144"/>
            <path id="Path_10974" data-name="Path 10974" d="M28,50.38l1.414.113v1.739a.707.707,0,1,1-1.414,0Z" transform="translate(-19.518 -49.73)" fill="#cc5144"/>
            <path id="Path_10975" data-name="Path 10975" d="M32.414,55.707v2.2a2.86,2.86,0,0,1-.7.141L31,58.1v-2.4a.707.707,0,0,1,1.414,0Z" transform="translate(-20.398 -51.084)" fill="#cc5144"/>
            <path id="Path_10976" data-name="Path 10976" d="M25.414,50.186v2.665a.707.707,0,1,1-1.414,0V50.08Z" transform="translate(-18.345 -49.642)" fill="#cc5144"/>
            <path id="Path_10977" data-name="Path 10977" d="M17.414,49.566v2.4a.707.707,0,1,1-1.414,0v-2.5Z" transform="translate(-16 -49.46)" fill="#cc5144"/>
            <path id="Path_10978" data-name="Path 10978" d="M32.414,55.707v2.2a2.86,2.86,0,0,1-.7.141L31,58.1v-2.4a.707.707,0,0,1,1.414,0Z" transform="translate(-20.398 -51.084)" fill="#cc5144"/>
            <path id="Path_10979" data-name="Path 10979" d="M22.414,55.707v2.827L21,58.64V55.707a.707.707,0,1,1,1.414,0Z" transform="translate(-17.466 -51.084)" fill="#cc5144"/>
            <path id="Path_10980" data-name="Path 10980" d="M29.414,50.493v1.739a.707.707,0,1,1-1.414,0V50.38Z" transform="translate(-19.518 -49.73)" fill="#cc5144"/>
          </g>
        </g>
      </g>
    </g>
  </g>
</svg>
